<?xml version="1.0" standalone="no"?>
<!DOCTYPE svg PUBLIC "-//W3C//DTD SVG 20010904//EN"
 "http://www.w3.org/TR/2001/REC-SVG-20010904/DTD/svg10.dtd">
<svg version="1.0" xmlns="http://www.w3.org/2000/svg"
 width="326.000000pt" height="347.000000pt" viewBox="0 0 326.000000 347.000000"
 preserveAspectRatio="xMidYMid meet">

<g transform="translate(0.000000,347.000000) scale(0.100000,-0.100000)"
fill="#000000" stroke="none">
<path d="M1006 3435 c-132 -89 -176 -134 -176 -177 0 -63 66 -93 227 -103 54
-3 112 -8 130 -11 l32 -5 -34 -45 c-28 -37 -35 -54 -35 -92 0 -45 -2 -48 -45
-71 -132 -70 -263 -241 -341 -446 l-22 -60 -51 2 c-59 3 -155 38 -199 74 -39
32 -80 94 -93 144 -30 107 26 269 136 393 62 72 68 100 29 138 -36 37 -68 26
-134 -45 -292 -312 -212 -729 157 -825 34 -9 73 -16 88 -16 27 0 27 0 18 -52
-4 -29 -8 -81 -8 -116 l0 -62 -35 -5 c-145 -22 -217 -48 -268 -98 -41 -39 -58
-97 -72 -242 -29 -290 -92 -423 -235 -495 -59 -30 -82 -67 -64 -102 16 -30 28
-38 62 -38 45 0 116 40 184 103 113 107 166 249 193 525 13 141 19 155 67 174
45 18 103 32 103 24 0 -3 -13 -44 -29 -93 -36 -106 -55 -254 -49 -365 l5 -82
-78 -151 c-239 -461 -308 -843 -192 -1057 57 -104 160 -177 212 -148 53 28 43
88 -22 135 -133 95 -142 335 -27 670 23 64 61 160 87 213 l46 97 14 -65 c39
-184 124 -399 203 -516 48 -71 186 -203 253 -243 72 -42 156 -76 255 -103 97
-26 415 -37 544 -19 431 61 693 320 813 804 l31 129 43 -94 c51 -110 113 -292
137 -398 9 -42 17 -124 18 -185 1 -146 -16 -196 -95 -279 -46 -48 -59 -68 -59
-92 0 -37 26 -64 63 -64 57 0 158 105 198 207 34 88 38 282 9 422 -38 186
-130 432 -236 630 l-46 86 1 110 c2 161 -22 301 -77 443 -4 12 2 14 33 8 53
-10 112 -42 119 -63 3 -10 13 -81 21 -158 30 -270 79 -400 188 -502 103 -96
201 -130 239 -83 35 43 15 86 -60 124 -92 47 -164 146 -196 269 -8 31 -22 121
-31 199 -18 162 -27 200 -54 245 -25 40 -123 88 -211 104 -36 6 -74 13 -86 15
-19 3 -22 12 -27 91 -4 49 -9 99 -12 113 -6 25 -4 26 63 36 133 21 266 106
326 208 109 187 46 472 -144 650 -59 55 -97 61 -129 20 -32 -40 -26 -60 33
-122 70 -74 112 -142 136 -221 66 -213 -46 -376 -280 -407 -47 -6 -50 -5 -60
21 -91 241 -200 389 -349 476 -53 31 -58 36 -51 60 10 34 -11 94 -46 130 l-27
28 24 5 c13 3 69 7 124 10 119 7 198 28 220 59 23 34 18 72 -15 110 -37 43
-176 137 -201 137 -43 0 -31 -64 23 -126 25 -29 26 -33 11 -39 -10 -4 -88 -10
-173 -15 -85 -4 -162 -10 -171 -14 -9 -4 -45 3 -80 15 -92 32 -269 32 -353 1
-32 -12 -63 -19 -69 -15 -5 3 -82 9 -171 14 -203 9 -206 10 -165 56 32 38 49
72 49 104 0 27 -39 25 -84 -6z m948 -580 c181 -47 317 -181 401 -396 39 -97
85 -278 85 -331 0 -72 -21 -82 -158 -76 -130 6 -406 48 -411 63 -12 31 -95 95
-142 110 -127 37 -280 -6 -331 -93 -16 -27 -23 -29 -175 -52 -185 -29 -360
-34 -388 -10 -26 21 -14 129 31 276 86 285 222 449 419 505 84 24 580 27 669
4z m-541 -933 c32 -50 80 -161 112 -265 l26 -82 6 -632 6 -633 -47 0 c-145 0
-360 74 -474 164 -220 174 -357 561 -356 1006 1 183 14 255 73 384 l31 68 42
-9 c69 -13 263 -5 388 16 165 27 163 27 193 -17z m623 17 c124 -23 341 -31
401 -16 31 8 33 7 56 -40 79 -158 101 -325 76 -579 -37 -379 -157 -669 -342
-822 -107 -89 -285 -156 -448 -169 l-76 -6 -7 631 -6 631 31 98 c56 175 126
293 175 293 12 0 75 -10 140 -21z"/>
</g>
</svg>
