<?xml version="1.0" standalone="no"?>
<!DOCTYPE svg PUBLIC "-//W3C//DTD SVG 20010904//EN"
 "http://www.w3.org/TR/2001/REC-SVG-20010904/DTD/svg10.dtd">
<svg version="1.0" xmlns="http://www.w3.org/2000/svg"
 width="1794.000000pt" height="732.000000pt" viewBox="0 0 1794.000000 732.000000"
 preserveAspectRatio="xMidYMid meet">

<g transform="translate(0.000000,732.000000) scale(0.100000,-0.100000)"
fill="#000000" stroke="none">
<path d="M4670 3660 l0 -2760 35 0 35 0 0 2760 0 2760 -35 0 -35 0 0 -2760z"/>
<path d="M1706 5365 c-132 -89 -176 -134 -176 -177 0 -63 66 -93 227 -103 54
-3 112 -8 130 -11 l32 -5 -34 -45 c-28 -37 -35 -54 -35 -92 0 -45 -2 -48 -45
-71 -132 -70 -263 -241 -341 -446 l-22 -60 -51 2 c-59 3 -155 38 -199 74 -39
32 -80 94 -93 144 -30 107 26 269 136 393 62 72 68 100 29 138 -36 37 -68 26
-134 -45 -292 -312 -212 -729 157 -825 34 -9 73 -16 88 -16 27 0 27 0 18 -52
-4 -29 -8 -81 -8 -116 l0 -62 -35 -5 c-145 -22 -217 -48 -268 -98 -41 -39 -58
-97 -72 -242 -29 -290 -92 -423 -235 -495 -59 -30 -82 -67 -64 -102 16 -30 28
-38 62 -38 45 0 116 40 184 103 113 107 166 249 193 525 13 141 19 155 67 174
45 18 103 32 103 24 0 -3 -13 -44 -29 -93 -36 -106 -55 -254 -49 -365 l5 -82
-78 -151 c-239 -461 -308 -843 -192 -1057 57 -104 160 -177 212 -148 53 28 43
88 -22 135 -133 95 -142 335 -27 670 23 64 61 160 87 213 l46 97 14 -65 c39
-184 124 -399 203 -516 48 -71 186 -203 253 -243 72 -42 156 -76 255 -103 97
-26 415 -37 544 -19 431 61 693 320 813 804 l31 129 43 -94 c51 -110 113 -292
137 -398 9 -42 17 -124 18 -185 1 -146 -16 -196 -95 -279 -46 -48 -59 -68 -59
-92 0 -37 26 -64 63 -64 57 0 158 105 198 207 34 88 38 282 9 422 -38 186
-130 432 -236 630 l-46 86 1 110 c2 161 -22 301 -77 443 -4 12 2 14 33 8 53
-10 112 -42 119 -63 3 -10 13 -81 21 -158 30 -270 79 -400 188 -502 103 -96
201 -130 239 -83 35 43 15 86 -60 124 -92 47 -164 146 -196 269 -8 31 -22 121
-31 199 -18 162 -27 200 -54 245 -25 40 -123 88 -211 104 -36 6 -74 13 -86 15
-19 3 -22 12 -27 91 -4 49 -9 99 -12 113 -6 25 -4 26 63 36 133 21 266 106
326 208 109 187 46 472 -144 650 -59 55 -97 61 -129 20 -32 -40 -26 -60 33
-122 70 -74 112 -142 136 -221 66 -213 -46 -376 -280 -407 -47 -6 -50 -5 -60
21 -91 241 -200 389 -349 476 -53 31 -58 36 -51 60 10 34 -11 94 -46 130 l-27
28 24 5 c13 3 69 7 124 10 119 7 198 28 220 59 23 34 18 72 -15 110 -37 43
-176 137 -201 137 -43 0 -31 -64 23 -126 25 -29 26 -33 11 -39 -10 -4 -88 -10
-173 -15 -85 -4 -162 -10 -171 -14 -9 -4 -45 3 -80 15 -92 32 -269 32 -353 1
-32 -12 -63 -19 -69 -15 -5 3 -82 9 -171 14 -203 9 -206 10 -165 56 32 38 49
72 49 104 0 27 -39 25 -84 -6z m948 -580 c181 -47 317 -181 401 -396 39 -97
85 -278 85 -331 0 -72 -21 -82 -158 -76 -130 6 -406 48 -411 63 -12 31 -95 95
-142 110 -127 37 -280 -6 -331 -93 -16 -27 -23 -29 -175 -52 -185 -29 -360
-34 -388 -10 -26 21 -14 129 31 276 86 285 222 449 419 505 84 24 580 27 669
4z m-541 -933 c32 -50 80 -161 112 -265 l26 -82 6 -632 6 -633 -47 0 c-145 0
-360 74 -474 164 -220 174 -357 561 -356 1006 1 183 14 255 73 384 l31 68 42
-9 c69 -13 263 -5 388 16 165 27 163 27 193 -17z m623 17 c124 -23 341 -31
401 -16 31 8 33 7 56 -40 79 -158 101 -325 76 -579 -37 -379 -157 -669 -342
-822 -107 -89 -285 -156 -448 -169 l-76 -6 -7 631 -6 631 31 98 c56 175 126
293 175 293 12 0 75 -10 140 -21z"/>
<path d="M14550 3845 l0 -1485 115 0 115 0 0 1485 0 1485 -115 0 -115 0 0
-1485z"/>
<path d="M5942 3813 l3 -1448 535 -3 c784 -4 938 10 1133 108 287 144 430 393
414 722 -9 189 -64 314 -197 448 -100 101 -211 157 -383 195 -45 9 -27 26 53
49 144 42 279 138 356 253 21 32 52 96 68 143 29 81 31 92 30 240 0 141 -2
162 -27 235 -82 248 -275 412 -567 481 -67 16 -146 18 -748 21 l-672 4 2
-1448z m1372 1203 c205 -61 341 -195 385 -380 19 -79 15 -241 -8 -316 -53
-171 -183 -287 -386 -342 -77 -21 -98 -22 -595 -22 l-515 -1 -3 543 -2 543
532 -4 c473 -3 540 -5 592 -21z m-29 -1299 c268 -58 442 -209 485 -422 17 -84
15 -234 -5 -303 -27 -92 -73 -168 -142 -232 -78 -73 -156 -114 -282 -148 l-96
-26 -525 0 -525 -1 -3 565 c-1 311 0 571 3 579 8 20 989 9 1090 -12z"/>
<path d="M13248 4723 l-3 -288 -162 -3 -163 -2 0 -105 0 -105 163 -2 162 -3 5
-700 5 -700 24 -65 c68 -192 207 -322 397 -370 87 -23 251 -27 334 -9 l50 11
0 96 0 97 -132 1 c-114 0 -141 4 -193 24 -109 42 -183 107 -218 192 -34 82
-38 171 -35 803 l3 620 288 3 287 2 0 105 0 105 -290 0 -290 0 0 290 0 290
-115 0 -115 0 -2 -287z"/>
<path d="M9262 4444 c-403 -73 -701 -392 -773 -824 -16 -100 -14 -335 5 -439
76 -416 332 -713 701 -812 101 -27 332 -37 444 -19 247 39 466 163 598 335 53
70 122 190 113 198 -6 5 -188 77 -194 77 -3 0 -20 -28 -38 -62 -39 -74 -141
-179 -222 -227 -232 -139 -583 -148 -803 -21 -117 67 -235 206 -297 348 -31
71 -66 224 -66 290 l0 42 829 0 828 0 6 88 c6 84 -4 266 -19 328 -72 317 -287
558 -588 660 -156 53 -361 68 -524 38z m323 -218 c188 -33 329 -118 430 -260
75 -105 125 -258 125 -383 l0 -43 -705 0 c-388 0 -705 3 -705 8 0 4 5 36 11
71 32 201 147 386 312 502 149 104 331 140 532 105z"/>
<path d="M11508 4445 c-227 -43 -405 -153 -516 -319 -44 -65 -112 -208 -112
-234 0 -6 47 -26 105 -46 l106 -35 11 27 c50 122 79 171 137 230 121 121 303
181 516 169 242 -13 400 -115 465 -299 16 -47 20 -83 20 -195 l0 -138 -382
-43 c-385 -43 -514 -64 -621 -101 -97 -34 -198 -93 -263 -154 -114 -106 -162
-208 -171 -367 -7 -116 19 -234 70 -318 67 -112 202 -208 357 -252 97 -28 338
-39 444 -20 248 43 434 174 529 372 18 37 35 67 40 67 4 1 7 -41 7 -92 0 -52
3 -149 7 -215 l6 -122 109 0 109 0 -4 783 c-3 714 -5 787 -21 841 -67 224
-236 384 -473 447 -103 28 -362 35 -475 14z m729 -1187 c-6 -163 -24 -237 -86
-363 -87 -176 -236 -288 -444 -332 -52 -10 -110 -14 -207 -10 -157 5 -237 26
-315 85 -156 118 -178 370 -45 515 82 89 203 141 396 167 166 23 629 78 668
79 l39 1 -6 -142z"/>
<path d="M16096 4444 c-358 -71 -616 -304 -734 -664 -70 -213 -67 -541 8 -770
114 -347 400 -599 746 -660 115 -20 357 -8 471 24 264 73 465 231 577 453 24
48 25 53 8 61 -38 19 -183 74 -186 71 -2 -2 -16 -29 -31 -59 -16 -32 -59 -87
-104 -131 -136 -136 -329 -209 -553 -209 -131 0 -225 21 -337 76 -175 86 -304
250 -365 464 -17 58 -36 210 -29 223 2 4 375 7 828 7 741 0 823 2 829 16 3 9
6 77 6 152 0 243 -45 402 -163 576 -98 145 -284 282 -462 339 -142 46 -365 60
-509 31z m324 -218 c154 -28 266 -84 363 -183 115 -117 178 -261 191 -440 l4
-63 -707 0 -708 0 9 63 c37 246 191 463 403 568 134 66 283 84 445 55z"/>
<path d="M11159 1857 c-98 -37 -146 -90 -155 -174 -8 -66 10 -127 53 -174 41
-46 64 -59 182 -105 46 -18 99 -43 117 -56 88 -60 83 -182 -10 -231 -56 -29
-202 -29 -293 1 l-63 20 0 -48 0 -49 76 -17 c105 -23 250 -16 316 16 50 23
103 75 119 117 14 37 11 150 -5 181 -29 55 -82 92 -201 141 -44 19 -97 42
-118 53 -98 50 -104 187 -10 234 47 23 167 23 232 0 24 -9 49 -16 56 -16 11 0
35 48 35 71 0 34 -261 62 -331 36z"/>
<path d="M13182 1851 c-97 -34 -142 -96 -142 -198 1 -112 62 -185 195 -234 96
-36 171 -76 194 -105 16 -20 21 -41 21 -81 0 -49 -4 -59 -33 -88 -61 -61 -205
-70 -345 -22 l-42 15 0 -48 0 -47 48 -14 c28 -9 95 -14 167 -14 111 0 124 2
177 28 85 42 128 110 128 206 0 66 -34 129 -91 167 -26 17 -94 50 -153 73
-151 61 -200 125 -162 214 36 88 149 105 334 51 19 -5 24 -1 38 31 8 20 13 39
10 42 -3 3 -36 14 -73 24 -87 24 -201 24 -271 0z"/>
<path d="M5940 1440 l0 -420 50 0 50 0 0 175 0 175 88 0 87 0 99 -171 c55 -94
105 -173 111 -176 7 -2 33 -3 58 -1 l46 3 -114 185 -113 185 36 19 c89 45 131
114 132 212 0 44 -6 73 -25 110 -48 96 -128 124 -357 124 l-148 0 0 -420z
m354 312 c35 -16 50 -30 61 -56 23 -54 19 -127 -8 -166 -38 -58 -76 -73 -199
-78 l-108 -5 0 168 0 168 103 -5 c74 -4 117 -12 151 -26z"/>
<path d="M6670 1440 l0 -420 45 0 45 0 0 200 0 200 220 0 220 0 0 -200 0 -200
50 0 50 0 0 420 0 420 -50 0 -50 0 0 -175 0 -175 -220 0 -220 0 0 175 0 175
-45 0 -45 0 0 -420z"/>
<path d="M7423 1847 c3 -8 64 -124 136 -258 l131 -244 0 -162 0 -163 50 0 50
0 0 164 0 164 130 240 c71 132 133 247 136 256 5 13 -2 16 -44 16 l-50 0 -107
-205 c-59 -113 -110 -205 -114 -205 -3 0 -54 91 -113 203 l-107 202 -52 3
c-41 3 -50 0 -46 -11z"/>
<path d="M8080 1815 l0 -45 130 0 130 0 0 -375 0 -375 50 0 50 0 0 375 0 375
130 0 130 0 0 45 0 45 -310 0 -310 0 0 -45z"/>
<path d="M8830 1440 l0 -420 45 0 45 0 0 200 0 200 220 0 220 0 0 -200 0 -200
50 0 50 0 0 420 0 420 -50 0 -50 0 0 -175 0 -175 -220 0 -220 0 0 175 0 175
-45 0 -45 0 0 -420z"/>
<path d="M9690 1440 l0 -420 46 0 46 0 -4 370 c-2 204 -2 370 -2 370 1 0 64
-166 140 -370 l139 -370 41 0 40 0 140 365 139 365 3 -365 2 -365 45 0 45 0 0
420 0 421 -71 -3 -71 -3 -131 -342 c-73 -189 -134 -343 -138 -343 -3 0 -63
155 -135 345 l-129 345 -72 0 -73 0 0 -420z"/>
<path d="M11889 1833 c-6 -16 -78 -201 -160 -412 -82 -211 -149 -388 -149
-393 0 -5 21 -8 47 -6 l47 3 50 133 50 132 167 0 167 0 32 -82 c17 -46 41
-107 52 -135 l19 -53 51 0 c36 0 49 4 45 13 -2 6 -72 188 -155 402 -83 215
-154 398 -158 408 -4 13 -17 17 -50 17 -39 0 -46 -3 -55 -27z m164 -385 l26
-68 -134 0 c-74 0 -135 2 -135 4 0 2 20 55 44 118 24 62 53 144 66 182 l23 69
42 -119 c23 -65 54 -149 68 -186z"/>
<path d="M12323 1847 c3 -8 64 -124 136 -258 l131 -244 0 -162 0 -163 50 0 50
0 0 164 0 164 130 240 c71 132 133 247 136 256 5 13 -2 16 -44 16 l-50 0 -107
-205 c-59 -113 -110 -205 -114 -205 -3 0 -54 91 -113 203 l-107 202 -52 3
c-41 3 -50 0 -46 -11z"/>
</g>
</svg>
